<svg width="184" height="48" viewBox="0 0 184 48" fill="none" xmlns="http://www.w3.org/2000/svg"><path d="M34.5087 22.0702C34.5297 22.1895 34.5436 22.3088 34.5436 22.4351V41.5509C34.5436 45.7895 31.2624 48 28.0301 48C26.3615 48 24.7907 47.4316 23.6039 46.393C22.2425 45.207 21.4885 43.4807 21.4885 41.5368V23.5579C21.4885 22.393 22.424 21.4526 23.5829 21.4526C24.7418 21.4526 25.6773 22.393 25.6773 23.5579V41.5368C25.6773 43.6772 27.6391 43.7825 28.0301 43.7825C28.6723 43.7825 29.2797 43.5789 29.6916 43.214C30.1314 42.8281 30.3548 42.2667 30.3548 41.5368V22.9403C30.3548 19.9158 29.4333 17.4456 27.6949 15.7754C26.18 14.3298 24.0996 13.5298 21.8306 13.5298C17.6069 13.5298 13.0551 16.3158 13.0551 22.4281V41.5439C13.0551 45.7825 9.78085 48 6.54151 48C4.87297 48 3.30217 47.4316 2.11534 46.393C0.753984 45.207 0 43.4807 0 41.5368V6.46316C0 4.51228 0.747003 2.78596 2.10138 1.60702C3.28123 0.568421 4.85203 0 6.51358 0C9.68311 0 13.0551 2.26667 13.0551 6.45614V8.61754C13.0551 9.78246 12.1196 10.7228 10.9607 10.7228C9.80179 10.7228 8.86629 9.78246 8.86629 8.61754V6.44912C8.86629 5.7193 8.64987 5.17193 8.19608 4.77895C7.7772 4.41403 7.16285 4.20351 6.51358 4.20351C6.12263 4.20351 4.1888 4.30877 4.1888 6.44912V41.5509C4.1888 43.6912 6.15055 43.7965 6.54151 43.7965C7.18379 43.7965 7.79117 43.593 8.20307 43.2281C8.64289 42.8421 8.86629 42.2807 8.86629 41.5509V22.4351C8.86629 18.4842 10.2835 15.1088 12.9643 12.6807C15.345 10.5193 18.4935 9.33333 21.8306 9.33333C25.1677 9.33333 28.2884 10.5404 30.5852 12.7368C32.9938 15.0386 34.3272 18.2597 34.5087 22.0702ZM64.1235 15.8246H61.8476C61.2542 15.8246 60.9191 16.1614 60.9191 16.7579V24.2246H53.0581V16.7579C53.0581 16.1614 52.723 15.8246 52.1296 15.8246H49.8537C49.2533 15.8246 48.9182 16.1614 48.9252 16.7579V35.3754C48.9252 35.9719 49.2603 36.3088 49.8537 36.3088H52.1296C52.723 36.3088 53.0581 35.9719 53.0581 35.3754V27.8105H60.9191V35.3754C60.9191 35.9719 61.2542 36.3088 61.8476 36.3088H64.1235C64.7169 36.3088 65.0521 35.9719 65.0521 35.3754V16.7579C65.0521 16.1614 64.7169 15.8246 64.1235 15.8246ZM84.4881 22.0842V35.3754C84.4881 35.9789 84.153 36.3088 83.5596 36.3088H81.4652C80.8648 36.3088 80.5367 35.9719 80.5367 35.3754V34.4982C79.3289 35.8456 77.6254 36.6667 75.5171 36.6667C71.3073 36.6667 68.2355 33.1719 68.2355 28.7368C68.2355 24.3018 71.3073 20.8 75.5171 20.8C77.6254 20.8 79.3359 21.6211 80.5367 22.9684V22.0912C80.5367 21.4877 80.8718 21.1579 81.4652 21.1579H83.5596C84.16 21.1579 84.4881 21.4947 84.4881 22.0912V22.0842ZM80.5297 28.7298C80.5297 26.2737 78.6936 24.3509 76.3688 24.3509C74.044 24.3509 72.2498 26.2667 72.2498 28.7298C72.2498 31.193 74.058 33.1088 76.3688 33.1088C78.6796 33.1088 80.5297 31.207 80.5297 28.7298ZM100.643 21.1509H98.4158C97.8783 21.1509 97.5292 21.3825 97.3547 21.9088L94.2131 31.214L91.1134 21.9088C90.9388 21.3965 90.6037 21.1509 90.0662 21.1509H87.8391C87.155 21.1509 86.8617 21.586 87.0921 22.2316L92.2304 36.3088L90.0033 42.014C89.752 42.6737 90.0452 43.1018 90.7434 43.0947H92.9704C93.508 43.0947 93.8431 42.8421 94.0316 42.3439L101.383 22.2246C101.62 21.5649 101.32 21.1439 100.636 21.1439L100.643 21.1509ZM118.976 15.8877V35.3825C118.976 35.986 118.641 36.3158 118.047 36.3158H115.953C115.353 36.3158 115.024 35.9789 115.024 35.3825V34.5053C113.817 35.8526 112.113 36.6737 110.005 36.6737C105.795 36.6737 102.723 33.1789 102.723 28.7439C102.723 24.3088 105.795 20.807 110.005 20.807C112.113 20.807 113.824 21.6281 115.024 22.9754V15.8947C115.024 15.2912 115.36 14.9614 115.953 14.9614H118.047C118.648 14.9614 118.976 15.2982 118.976 15.8947V15.8877ZM115.017 28.7368C115.017 26.2807 113.181 24.3579 110.857 24.3579C108.532 24.3579 106.738 26.2737 106.738 28.7368C106.738 31.2 108.546 33.1158 110.857 33.1158C113.167 33.1158 115.017 31.214 115.017 28.7368ZM137.958 28.4772C137.958 28.6667 137.944 28.8842 137.93 29.0947C137.874 29.6632 137.497 29.9439 136.925 29.9439H125.901C126.257 32.0421 128.003 33.4667 130.418 33.4667C132.15 33.4667 133.49 32.9684 134.698 32.0211C135.166 31.6561 135.612 31.6702 136.024 32.0772L136.743 32.793C137.162 33.214 137.197 33.6982 136.771 34.1263C135.2 35.6351 133.19 36.6737 130.439 36.6737C125.287 36.6737 121.859 33.1789 121.859 28.7439C121.859 24.3088 125.378 20.814 130.055 20.814C134.733 20.814 137.958 24.2526 137.958 28.4842V28.4772ZM133.846 27.0737C133.413 25.2702 131.982 24.014 130.027 24.014C128.073 24.014 126.551 25.2281 126.013 27.0737H133.846ZM149.142 20.807C147.411 20.807 145.91 21.5719 144.849 22.8561V22.0912C144.849 21.4947 144.514 21.1579 143.92 21.1579H141.777C141.183 21.1579 140.848 21.4947 140.848 22.0912V35.3825C140.848 35.9789 141.183 36.3158 141.777 36.3158H143.92C144.514 36.3158 144.849 35.9789 144.849 35.3825V28.0632C144.849 25.7754 146.426 24.3579 148.27 24.3579C149.812 24.3579 151.125 25.6772 151.125 27.3544V35.3754C151.125 35.9719 151.46 36.3088 152.053 36.3088H154.197C154.79 36.3088 155.125 35.9719 155.125 35.3754V26.9333C155.125 23.2561 152.682 20.8 149.142 20.8V20.807ZM176.67 35.2561C176.9 35.9018 176.593 36.3228 175.909 36.3228H173.465C172.928 36.3228 172.592 36.0772 172.418 35.5579L171.147 31.7053H163.782L162.511 35.5579C162.337 36.0702 162.002 36.3228 161.464 36.3228H159.021C158.337 36.3228 158.029 35.9018 158.267 35.2561L164.92 16.5825C165.095 16.0702 165.444 15.8316 165.981 15.8316H168.948C169.486 15.8316 169.835 16.0702 170.009 16.5825L176.663 35.2561H176.67ZM170.086 28.3158L167.468 20.2667L164.843 28.3158H170.086ZM183.071 15.8316H180.796C180.202 15.8316 179.867 16.1684 179.867 16.7649V35.3825C179.867 35.9789 180.202 36.3158 180.796 36.3158H183.071C183.665 36.3158 184 35.9789 184 35.3825V16.7579C184 16.1614 183.665 15.8246 183.071 15.8246V15.8316Z" fill="currentColor"/></svg>
